<?xml version="1.0" encoding="utf-8"?>
<!-- Generator: Adobe Illustrator 21.0.0, SVG Export Plug-In . SVG Version: 6.00 Build 0)  -->
<svg version="1.1" id="图层_1" xmlns="http://www.w3.org/2000/svg" xmlns:xlink="http://www.w3.org/1999/xlink" x="0px" y="0px"
	 viewBox="0 0 256 256" style="enable-background:new 0 0 256 256;" xml:space="preserve">
<style type="text/css">
	.st0{fill:#E5E5E5;}
</style>
<g>
	<circle class="st0" cx="128.5" cy="128" r="128"/>
</g>
<g>
	<path d="M90.4,153.3H73.9l-6.6-17.1h-30l-6.2,17.1H15l29.3-75.1h16L90.4,153.3z M62.5,123.5L52.1,95.7L42,123.5H62.5z"/>
	<path d="M166.2,153.3h-16.5l-6.6-17.1h-30l-6.2,17.1H90.8l29.3-75.1h16L166.2,153.3z M138.3,123.5l-10.4-27.9l-10.1,27.9H138.3z"/>
	<path d="M242,153.3h-16.5l-6.6-17.1h-30l-6.2,17.1h-16.1l29.3-75.1h16L242,153.3z M214.1,123.5l-10.4-27.9l-10.1,27.9H214.1z"/>
</g>
</svg>
