<?xml version="1.0" encoding="utf-8"?>
<!-- Generator: Adobe Illustrator 21.0.0, SVG Export Plug-In . SVG Version: 6.00 Build 0)  -->
<svg version="1.1" id="图层_1" xmlns="http://www.w3.org/2000/svg" xmlns:xlink="http://www.w3.org/1999/xlink" x="0px" y="0px"
	 viewBox="0 0 256 256" style="enable-background:new 0 0 256 256;" xml:space="preserve">
<style type="text/css">
	.st0{fill:#E5E5E5;}
</style>
<circle class="st0" cx="128.5" cy="128" r="128"/>
<g>
	<path d="M53.7,161V95c0-8.2-2.7-12.4-8.2-12.4c-1.4,0-1.4,0-2.7,0c-2.7,0-4.1,0-4.1,0c-4.1,0-5.5-1.4-5.5-5.5
		c0-4.1,2.7-5.5,6.9-5.5c1.4,0,1.4,0,2.7,0l8.2,1.4c2.7,0,5.5,0,9.6,0c2.7,0,5.5,0,9.6,0c9.6-1.4,15.1-1.4,20.6-1.4
		c6.9,0,13.7,0,17.9,1.4c6.9,1.4,12.4,5.5,16.5,9.6c4.1,5.5,5.5,11,5.5,19.2c0,11-4.1,17.9-11,23.3c-6.9,5.5-17.9,8.2-30.2,8.2H77
		c-4.1,0-5.5,0-6.9,0l0,0c-1.4,0-2.7,0-2.7,1.4S66,136.2,66,139v2.7c0,13.7,0,22,1.4,24.7c1.4,2.7,2.7,4.1,6.9,4.1
		c1.4,0,2.7,0,4.1,0c2.7,0,4.1,0,4.1,0c2.7,0,5.5,1.4,5.5,5.5c0,4.1-2.7,5.5-6.9,5.5h-2.7l-8.2,1.4c-2.7,0-5.5,0-11,0
		c-4.1,0-6.9,0-9.6,0l-9.6,1.4c0,0,0,0-1.4,0h-1.4c-5.5,0-6.9-1.4-6.9-5.5c0-1.4,0-2.7,1.4-4.1c1.4-1.4,2.7-1.4,4.1-1.4
		c1.4,0,2.7,0,4.1,0c1.4,0,1.4,0,4.1,0C49.5,173.3,53.7,169.2,53.7,161z M67.4,86.8C66,88.2,66,90.9,66,96.4v24.7
		c0,2.7,2.7,4.1,6.9,5.5c0,0,2.7,0,9.6,0c8.2,0,13.7,0,19.2-1.4c9.6-2.7,15.1-8.2,15.1-19.2c0-13.7-8.2-20.6-26.1-20.6
		C77,82.7,70.1,84.1,67.4,86.8z"/>
	<path d="M184.1,70.3c11,0,19.2,4.1,26.1,11v-2.7c0-4.1,1.4-6.9,5.5-6.9c4.1,0,5.5,2.7,5.5,6.9v1.4c0,0,0,1.4,0,5.5
		c0,2.7,0,6.9,0,11c0,0,0,2.7,0,5.5v6.9c0,0,0,1.4,0,2.7c0,5.5-1.4,8.2-5.5,8.2c-4.1,0-6.9-2.7-6.9-6.9v-2.7V106c0-1.4,0-2.7,0-4.1
		c0-6.9-2.7-12.4-6.9-15.1c-4.1-4.1-11-5.5-17.9-5.5s-12.4,1.4-16.5,5.5c-4.1,4.1-6.9,8.2-6.9,13.7c0,6.9,2.7,12.4,9.6,15.1
		c4.1,1.4,9.6,2.7,17.9,4.1c13.7,2.7,22,5.5,27.5,8.2c6.9,5.5,11,12.4,11,23.3s-4.1,19.2-11,24.7c-6.9,6.9-16.5,9.6-28.8,9.6
		c-12.4,0-23.3-4.1-31.6-12.4v1.4v1.4c0,1.4,0,2.7,0,2.7c0,4.1-1.4,5.5-5.5,5.5c-4.1,0-6.9-2.7-6.9-6.9v-1.4l1.4-8.2
		c0-4.1,0-6.9,0-8.2c0-2.7,0-5.5-1.4-9.6c0-4.1-1.4-8.2-1.4-9.6c0-5.5,2.7-6.9,6.9-6.9s6.9,2.7,6.9,6.9v2.7c0,1.4,0,2.7,0,4.1
		c0,8.2,2.7,15.1,8.2,19.2c5.5,4.1,12.4,6.9,22,6.9c8.2,0,15.1-1.4,19.2-5.5c5.5-4.1,6.9-9.6,6.9-16.5c0-11-6.9-16.5-19.2-19.2
		l-9.6-1.4c-9.6-1.4-16.5-4.1-22-5.5c-4.1-2.7-8.2-5.5-11-9.6s-4.1-9.6-4.1-15.1c0-9.6,4.1-17.9,11-23.3
		C163.5,73.1,173.1,70.3,184.1,70.3z"/>
</g>
</svg>
