<?xml version="1.0" encoding="utf-8"?>
<!-- Generator: Adobe Illustrator 21.0.0, SVG Export Plug-In . SVG Version: 6.00 Build 0)  -->
<svg version="1.1" id="图层_1" xmlns="http://www.w3.org/2000/svg" xmlns:xlink="http://www.w3.org/1999/xlink" x="0px" y="0px"
	 viewBox="0 0 256 256" style="enable-background:new 0 0 256 256;" xml:space="preserve">
<style type="text/css">
	.st0{fill:#E5E5E5;}
</style>
<circle class="st0" cx="128.5" cy="128" r="128"/>
<g>
	<path d="M43.8,176.7V74.9h32.9c12.4,0,20.6,0.5,24.4,1.5c5.8,1.5,10.7,4.9,14.7,10s5.9,11.8,5.9,19.8c0,6.3-1.2,11.5-3.4,15.7
		c-2.2,4.3-5.1,7.6-8.6,10s-7.1,4.1-10.7,4.8c-4.9,0.9-12,1.5-21.3,1.5H64.3v38.4H43.8V176.7z M64.3,92.1V121h11.3
		c8.1,0,13.5-0.6,16.3-1.6c2.7-1,4.9-2.7,6.4-5c1.5-2.2,2.3-4.9,2.3-7.9c0-3.7-1-6.7-3.3-9.2s-4.9-4-8.3-4.5
		c-2.4-0.5-7.3-0.7-14.8-0.7h-10V92.1z"/>
	<path d="M133.4,143.7l20-2c1.2,6.7,3.6,11.6,7.3,14.8c3.7,3.1,8.6,4.8,14.9,4.8c6.6,0,11.6-1.4,15-4.2c3.4-2.8,5-6.1,5-9.8
		c0-2.4-0.7-4.4-2.1-6.2c-1.4-1.7-3.8-3.1-7.4-4.4c-2.4-0.8-7.9-2.3-16.4-4.4c-11.1-2.7-18.7-6.1-23.2-10.1
		c-6.3-5.6-9.4-12.4-9.4-20.5c0-5.2,1.5-10,4.4-14.5s7.2-7.9,12.7-10.4c5.6-2.3,12.2-3.5,20-3.5c12.8,0,22.3,2.8,28.9,8.4
		c6.4,5.6,9.9,13,10.1,22.5l-20.6,0.9c-0.9-5.2-2.8-9-5.7-11.3s-7.2-3.5-13-3.5c-5.9,0-10.6,1.3-14.1,3.7c-2.2,1.6-3.3,3.7-3.3,6.3
		c0,2.4,1,4.4,3,6.2c2.6,2.2,8.8,4.4,18.8,6.7c10,2.3,17.3,4.8,22.2,7.3c4.8,2.6,8.5,5.9,11.3,10.4c2.7,4.4,4.1,9.8,4.1,16.2
		c0,5.8-1.6,11.3-4.9,16.4c-3.3,5.1-7.8,8.8-13.7,11.4c-5.9,2.4-13.3,3.7-22.1,3.7c-12.9,0-22.7-3-29.7-9
		C138.9,163.7,134.8,155,133.4,143.7z"/>
</g>
</svg>
