<?xml version="1.0" encoding="utf-8"?>
<!-- Generator: Adobe Illustrator 21.0.0, SVG Export Plug-In . SVG Version: 6.00 Build 0)  -->
<svg version="1.1" id="图层_1" xmlns="http://www.w3.org/2000/svg" xmlns:xlink="http://www.w3.org/1999/xlink" x="0px" y="0px"
	 viewBox="0 0 256 256" style="enable-background:new 0 0 256 256;" xml:space="preserve">
<style type="text/css">
	.st0{fill:#E5E5E5;}
</style>
<circle class="st0" cx="128.5" cy="128" r="128"/>
<g>
	<path d="M16.3,141.6v-40.5h30v6.9H24.5v9h20.3v6.8H24.5v11h22.6v6.8H16.3z"/>
	<path d="M49.9,141.6l13.8-21.1l-12.5-19.4h9.6l8.1,13l8-13h9.5l-12.6,19.7l13.8,20.8h-9.9l-9-14l-9,14H49.9z"/>
	<path d="M91.8,141.6v-40.5h13.1c5,0,8.2,0.2,9.7,0.6c2.3,0.6,4.3,1.9,5.8,4c1.6,2,2.3,4.7,2.3,7.9c0,2.5-0.5,4.6-1.4,6.3
		c-0.9,1.7-2,3-3.4,4c-1.4,1-2.8,1.6-4.2,1.9c-2,0.4-4.8,0.6-8.5,0.6h-5.3v15.3H91.8z M99.9,108v11.5h4.5c3.2,0,5.4-0.2,6.5-0.6
		c1.1-0.4,1.9-1.1,2.6-2c0.6-0.9,0.9-2,0.9-3.1c0-1.5-0.4-2.7-1.3-3.6c-0.9-1-2-1.6-3.3-1.8c-1-0.2-2.9-0.3-5.9-0.3H99.9z"/>
	<path d="M127.9,121.6c0-4.1,0.6-7.6,1.9-10.4c0.9-2.1,2.2-3.9,3.8-5.6c1.6-1.6,3.3-2.9,5.2-3.6c2.5-1.1,5.4-1.6,8.7-1.6
		c6,0,10.7,1.9,14.3,5.6s5.4,8.9,5.4,15.4c0,6.5-1.8,11.7-5.3,15.3s-8.3,5.5-14.3,5.5c-6,0-10.8-1.8-14.4-5.5
		S127.9,128.1,127.9,121.6z M136.3,121.3c0,4.6,1.1,8.1,3.2,10.4c2.1,2.4,4.8,3.5,8.1,3.5c3.3,0,5.9-1.2,8-3.5
		c2.1-2.3,3.1-5.9,3.1-10.6c0-4.6-1-8.1-3.1-10.4c-2-2.3-4.7-3.4-8.1-3.4c-3.4,0-6.1,1.2-8.2,3.5
		C137.3,113.2,136.3,116.7,136.3,121.3z"/>
	<path d="M173.5,141.6v-40.5h17.2c4.3,0,7.5,0.4,9.4,1.1c2,0.7,3.5,2,4.7,3.9c1.2,1.9,1.8,4,1.8,6.4c0,3-0.9,5.5-2.7,7.5
		c-1.8,2-4.5,3.2-8,3.7c1.8,1,3.2,2.2,4.4,3.4c1.2,1.2,2.7,3.4,4.7,6.6l4.9,7.9h-9.8l-5.9-8.8c-2.1-3.1-3.5-5.1-4.3-6
		c-0.8-0.8-1.6-1.4-2.5-1.7c-0.9-0.3-2.2-0.5-4.1-0.5h-1.7v16.9H173.5z M181.7,118.2h6.1c3.9,0,6.4-0.2,7.3-0.5
		c1-0.3,1.7-0.9,2.3-1.7c0.6-0.8,0.8-1.8,0.8-3c0-1.4-0.4-2.5-1.1-3.3c-0.7-0.8-1.8-1.4-3.1-1.6c-0.7-0.1-2.7-0.1-6-0.1h-6.4V118.2z
		"/>
	<path d="M223.5,141.6V108h-12v-6.9h32.2v6.9h-12v33.7H223.5z"/>
</g>
</svg>
