<?xml version="1.0" encoding="utf-8"?>
<!-- Generator: Adobe Illustrator 21.0.0, SVG Export Plug-In . SVG Version: 6.00 Build 0)  -->
<svg version="1.1" id="图层_1" xmlns="http://www.w3.org/2000/svg" xmlns:xlink="http://www.w3.org/1999/xlink" x="0px" y="0px"
	 viewBox="0 0 256 256" style="enable-background:new 0 0 256 256;" xml:space="preserve">
<style type="text/css">
	.st0{fill:#E5E5E5;}
</style>
<circle class="st0" cx="128.5" cy="128" r="128"/>
<g>
	<path d="M37,150L21.3,84.6h13.5l9.9,44.9l12-44.9h15.7l11.5,45.7l10-45.7h13.3L91.3,150h-14l-13-48.9l-13,48.9H37z"/>
	<path d="M167.9,150h-14.4l-5.7-14.9h-26.2l-5.4,14.9h-14l25.5-65.4h14L167.9,150z M143.6,124.1l-9-24.3l-8.8,24.3H143.6z"/>
	<path d="M205.4,125.9v-11h28.5V141c-2.8,2.7-6.8,5-12,7.1c-5.3,2-10.6,3.1-16,3.1c-6.8,0-12.8-1.4-17.9-4.3s-8.9-7-11.5-12.3
		c-2.6-5.3-3.8-11.2-3.8-17.4c0-6.8,1.4-12.9,4.3-18.2c2.9-5.3,7-9.4,12.5-12.2c4.2-2.2,9.4-3.3,15.7-3.3c8.1,0,14.5,1.7,19,5.1
		c4.6,3.4,7.5,8.1,8.8,14.1l-13.1,2.5c-0.9-3.2-2.7-5.7-5.2-7.6c-2.5-1.9-5.7-2.8-9.5-2.8c-5.8,0-10.4,1.8-13.8,5.5
		c-3.4,3.7-5.1,9.1-5.1,16.3c0,7.8,1.7,13.6,5.2,17.5s8,5.8,13.6,5.8c2.8,0,5.5-0.5,8.3-1.6s5.2-2.4,7.2-4v-8.3H205.4z"/>
</g>
</svg>
