<?xml version="1.0" encoding="utf-8"?>
<!-- Generator: Adobe Illustrator 21.0.0, SVG Export Plug-In . SVG Version: 6.00 Build 0)  -->
<svg version="1.1" id="图层_1" xmlns="http://www.w3.org/2000/svg" xmlns:xlink="http://www.w3.org/1999/xlink" x="0px" y="0px"
	 viewBox="0 0 256 256" style="enable-background:new 0 0 256 256;" xml:space="preserve">
<style type="text/css">
	.st0{fill:#E5E5E5;}
</style>
<circle class="st0" cx="128.5" cy="128" r="128"/>
<g>
	<path d="M41.5,110.4l8,40.7l9.6-49.5c0.8-4,3.2-6.4,6.4-6.4c4,0,5.6,1.6,6.4,5.6l9.6,51.1l8-39.9c0.8-3.2,0.8-4.8,0.8-6.4
		c0-2.4-1.6-4-4-4c-0.8,0-1.6,0-2.4,0s-1.6,0-2.4,0c-2.4,0-4-0.8-4-3.2c0-2.4,1.6-3.2,4-3.2c0.8,0,2.4,0,3.2,0
		c5.6,0.8,8.8,0.8,10.4,0.8c1.6,0,3.2,0,5.6-0.8c2.4,0,4.8-0.8,5.6-0.8c2.4,0,3.2,0.8,3.2,3.2c0,2.4-0.8,3.2-3.2,3.2
		c0,0-0.8,0-1.6,0c-0.8,0-1.6,0-1.6,0c-1.6,0-2.4,0.8-3.2,1.6s-1.6,3.2-2.4,7.2L87,155.1c-0.8,3.2-3.2,5.6-5.6,5.6
		c-3.2,0-5.6-2.4-6.4-6.4l-9.6-50.3l-10.4,51.9c-0.8,3.2-2.4,4.8-5.6,4.8c-3.2,0-4.8-1.6-5.6-5.6l-11.2-47.9c-0.8-2.4-1.6-4-2.4-4.8
		c-0.8-0.8-2.4-1.6-4-1.6h-0.8h-2.4c-2.4,0-3.2-0.8-3.2-3.2c0-2.4,0.8-3.2,3.2-3.2c0.8,0,1.6,0,3.2,0c3.2,0.8,7.2,0.8,10.4,0.8
		c1.6,0,4.8,0,10.4-0.8c0.8,0,1.6,0,2.4,0c2.4,0,3.2,0.8,3.2,3.2c0,2.4-1.6,3.2-4,3.2c-0.8,0-1.6,0-2.4,0c-0.8,0-2.4,0-2.4,0
		c-2.4,0-3.2,0.8-3.2,3.2c0,0.8,0,1.6,0,2.4L41.5,110.4z"/>
	<path d="M152.4,148.8l-3.2-9.6c0-0.8-0.8-1.6-1.6-1.6c-0.8,0-1.6,0-2.4,0h-16.8c-1.6,0-2.4,0-2.4,0.8c-0.8,0.8-0.8,1.6-1.6,4
		l-3.2,6.4c0,0.8,0,1.6,0,2.4c0,2.4,1.6,3.2,4,3.2c0.8,0,1.6,0,2.4,0c0.8,0,2.4,0,2.4,0c2.4,0,4,0.8,4,3.2c0,2.4-1.6,3.2-4,3.2
		c-0.8,0-1.6,0-2.4,0l-4.8-0.8c-0.8,0-2.4,0-4.8,0s-4,0-4.8,0l-4,0.8c-1.6,0-3.2,0-4,0c-2.4,0-4-0.8-4-3.2c0-2.4,1.6-3.2,4-3.2
		c0.8,0,0.8,0,0.8,0h1.6c1.6,0,3.2-0.8,4-2.4c0-0.8,0.8-2.4,1.6-4.8l17.6-48.7c0.8-2.4,3.2-4,6.4-4c3.2,0,4.8,1.6,5.6,4l16.8,47.9
		c0.8,3.2,2.4,4.8,3.2,5.6c0.8,0.8,2.4,1.6,4,1.6c0.8,0,0.8,0,0.8,0h2.4c2.4,0,4,0.8,4,3.2c0,2.4-1.6,3.2-4,3.2c-0.8,0-1.6,0-2.4,0
		c-4-0.8-7.2-0.8-8.8-0.8c-2.4,0-6.4,0-11.2,0.8c-1.6,0-2.4,0-3.2,0c-2.4,0-4-0.8-4-3.2c0-2.4,1.6-3.2,4-3.2c0.8,0,1.6,0,2.4,0
		c0.8,0,1.6,0,2.4,0c2.4,0,3.2-0.8,3.2-2.4C153.2,150.3,153.2,149.6,152.4,148.8z M146.1,128.8l-8.8-26.3l-8.8,26.3v0.8
		c0,0.8,0.8,0.8,1.6,0.8h15.2C145.3,130.4,146.1,130.4,146.1,128.8C146.1,129.6,146.1,129.6,146.1,128.8z"/>
	<path d="M203.5,93.7c6.4,0,12,2.4,17.6,7.2c0-0.8,0-1.6,0-1.6c0-1.6,0-1.6,0-2.4c0-2.4,0.8-3.2,3.2-3.2c2.4,0,3.2,1.6,3.2,4
		c0,0.8,0,1.6,0,2.4l-0.8,4.8c0,1.6,0,2.4,0,4c0,1.6,0,4,0,8v0.8c0,3.2-0.8,4-3.2,4c-2.4,0-3.2-1.6-3.2-4.8v-3.2c0-4.8-1.6-8-4-10.4
		c-3.2-2.4-7.2-4-12-4c-6.4,0-11.2,2.4-14.4,7.2c-3.2,4.8-5.6,11.2-5.6,20s1.6,16,5.6,20.8c4,4.8,8.8,7.2,15.2,7.2
		c4.8,0,8.8-1.6,11.2-4c2.4-2.4,4-7.2,4-12c0-2.4,0-4-0.8-4.8c-1.6-0.8-3.2-0.8-4.8-0.8c-0.8,0-1.6,0-2.4,0c-0.8,0-1.6,0-2.4,0
		c-3.2,0-4.8-0.8-4.8-3.2c0-2.4,1.6-3.2,4-3.2c0.8,0,1.6,0,2.4,0c4,0.8,7.2,0.8,9.6,0.8c3.2,0,6.4,0,9.6-0.8c0.8,0,1.6,0,2.4,0
		c2.4,0,4,0.8,4,3.2c0,0.8,0,1.6-0.8,2.4c-0.8,0.8-1.6,0.8-2.4,0.8c-0.8,0-1.6,0-1.6,0s0,0-0.8,0c-0.8,0-0.8,0-0.8,0
		c-3.2,0-4,3.2-4,9.6v8c0,1.6,0,3.2,0,4.8s0,2.4,0,3.2c0,2.4-0.8,4-3.2,4c-2.4,0-3.2-0.8-3.2-3.2v-2.4c0-0.8,0-1.6,0-3.2
		c-1.6,1.6-2.4,3.2-3.2,4c-4,3.2-8.8,4.8-15.2,4.8c-8,0-15.2-3.2-20-9.6c-4.8-6.4-7.2-14.4-7.2-23.9c0-10.4,2.4-19.2,8-25.5
		C188.4,96.9,194.7,93.7,203.5,93.7z"/>
</g>
</svg>
