<?xml version="1.0" encoding="utf-8"?>
<!-- Generator: Adobe Illustrator 21.0.0, SVG Export Plug-In . SVG Version: 6.00 Build 0)  -->
<svg version="1.1" id="图层_1" xmlns="http://www.w3.org/2000/svg" xmlns:xlink="http://www.w3.org/1999/xlink" x="0px" y="0px"
	 viewBox="0 0 256 256" style="enable-background:new 0 0 256 256;" xml:space="preserve">
<style type="text/css">
	.st0{fill:#E5E5E5;}
</style>
<circle class="st0" cx="128.5" cy="128" r="128"/>
<g>
	<path d="M35.4,105.2c0-5.5-1.8-8.2-5.5-8.2c-0.9,0-1.8,0-2.7,0c-0.9,0-1.8,0-2.7,0c-0.9,0-1.8,0-2.7-0.9c-0.9-0.9-0.9-1.8-0.9-2.7
		c0-2.7,1.8-3.7,4.6-3.7c0,0,0.9,0,1.8,0c11,0.9,16.4,0.9,15.5,0.9h0.9l26.5-0.9c0.9,0,2.7,0,5.5,0c0.9,0,1.8,0,2.7,0
		c3.7,0,5.5,1.8,5.5,5.5c0,0.9,0,2.7,0,5.5s0,4.6,0,6.4c0,2.7,0,4.6,0,5.5c0,1.8,0,3.7,0,4.6c0,2.7-0.9,4.6-3.7,4.6
		c-2.7,0-3.7-1.8-3.7-5.5v-5.5c0-6.4-0.9-10-3.7-11c-1.8-0.9-6.4-0.9-14.6-0.9c-5.5,0-8.2,0-9.1,0c-2.7,0.9-4.6,2.7-4.6,6.4v4.6
		c0,0.9,0,1.8,0,2.7s0,1.8,0,1.8v1.8c0,2.7,0.9,4.6,1.8,5.5c0.9,0,0.9,0,2.7,0h4.6c4.6,0,6.4-1.8,6.4-4.6c0-0.9,0-1.8,0-3.7
		s0-2.7,0-3.7c0-2.7,0.9-4.6,3.7-4.6c2.7,0,3.7,1.8,3.7,4.6c0,0.9,0,2.7-0.9,6.4c0,3.7-0.9,6.4-0.9,9.1c0,1.8,0,3.7,0,8.2
		c0,0.9,0,1.8,0.9,3.7c0,1.8,0,2.7,0,3.7c0,2.7-0.9,3.7-3.7,3.7c-2.7,0-3.7-1.8-3.7-4.6c0-0.9,0-1.8,0-3.7c0-1.8,0-2.7,0-3.7
		c0-2.7-1.8-4.6-6.4-4.6h-4.6c-1.8,0-3.7,0-3.7,0.9c-0.9,0.9-0.9,2.7-0.9,4.6v6.4c0,0.9,0,2.7,0,4.6c0,2.7,0,3.7,0,4.6
		c0,2.7,0.9,4.6,1.8,5.5c0.9,0.9,2.7,0.9,5.5,0.9h14.6c4.6,0,7.3-0.9,9.1-1.8c1.8-0.9,2.7-3.7,2.7-7.3c0-0.9,0-2.7,0-4.6
		c0-1.8,0-3.7,0-4.6c0-3.7,0.9-4.6,3.7-4.6c2.7,0,3.7,1.8,3.7,5.5c0,0.9,0,3.7,0,6.4c0,2.7,0,4.6,0,6.4c0,0.9,0,2.7,0,4.6
		c0,1.8,0,3.7,0,4.6c0,3.7-1.8,5.5-5.5,5.5c-0.9,0-1.8,0-3.7,0c-0.9,0-2.7,0-4.6,0c0.9,0-2.7,0-8.2,0c-6.4,0-11.9,0-16.4,0
		c-7.3,0-13.7,0-20.1,0.9h-0.9h-0.9c-2.7,0-4.6-0.9-4.6-3.7c0-2.7,0.9-3.7,3.7-3.7c0,0,0.9,0,2.7,0c0.9,0,1.8,0,2.7,0
		c3.7,0,5.5-2.7,5.5-8.2v-45.6H35.4z"/>
	<path d="M108.4,149v-43.8c0-5.5-1.8-8.2-5.5-8.2c-0.9,0-0.9,0-1.8,0c-1.8,0-2.7,0-2.7,0c-2.7,0-3.7-0.9-3.7-3.7
		c0-2.7,1.8-3.7,4.6-3.7c0.9,0,0.9,0,1.8,0l5.5,0.9c1.8,0,3.7,0,6.4,0c1.8,0,3.7,0,6.4,0c6.4-0.9,10-0.9,13.7-0.9
		c4.6,0,9.1,0,11.9,0.9c4.6,0.9,8.2,3.7,11,6.4c2.7,3.7,3.7,7.3,3.7,12.8c0,7.3-2.7,11.9-7.3,15.5c-4.6,3.7-11.9,5.5-20.1,5.5h-7.3
		c-2.7,0-3.7,0-4.6,0l0,0c-0.9,0-1.8,0-1.8,0.9s-0.9,0.9-0.9,2.7v1.8c0,9.1,0,14.6,0.9,16.4s1.8,2.7,4.6,2.7c0.9,0,1.8,0,2.7,0
		c1.8,0,2.7,0,2.7,0c1.8,0,3.7,0.9,3.7,3.7c0,2.7-1.8,3.7-4.6,3.7h-1.8l-5.5-0.9c-1.8,0-3.7,0-7.3,0c-2.7,0-4.6,0-6.4,0l-6.4,0.9
		c0,0,0,0-0.9,0h-0.9c-3.7,0-4.6-0.9-4.6-3.7c0-0.9,0-1.8,0.9-2.7s1.8-0.9,2.7-0.9s1.8,0,2.7,0s0.9,0,2.7,0
		C106.6,157.2,108.4,154.5,108.4,149z M118.5,99.7c-0.9,0.9-0.9,2.7-0.9,6.4v16.4c0,1.8,1.8,2.7,4.6,3.7c0,0,1.8,0,6.4,0
		c5.5,0,9.1,0,12.8-0.9c6.4-1.8,10-5.5,10-12.8c0-9.1-5.5-13.7-17.3-13.7C124.8,97,119.4,97.9,118.5,99.7z"/>
	<path d="M198.8,88.8c7.3,0,13.7,2.7,20.1,8.2c0-0.9,0-1.8,0-1.8c0-1.8,0-1.8,0-2.7c0-2.7,0.9-3.7,3.7-3.7c2.7,0,3.7,1.8,3.7,4.6
		c0,0.9,0,1.8,0,2.7l-0.9,4.6c0,1.8,0,2.7,0,4.6s0,4.6,0,9.1v0.9c0,3.7-0.9,4.6-3.7,4.6c-2.7,0-3.7-1.8-3.7-5.5v-3.7
		c0-5.5-1.8-9.1-4.6-11.9c-3.7-2.7-8.2-4.6-13.7-4.6c-7.3,0-12.8,2.7-16.4,8.2c-3.7,5.5-6.4,12.8-6.4,22.8s1.8,18.3,6.4,23.7
		c4.6,5.5,10,8.2,17.3,8.2c5.5,0,10-1.8,12.8-4.6c2.7-3.7,4.6-8.2,4.6-13.7c0-2.7,0-4.6-0.9-5.5c-1.8,0-3.7,0-5.5,0
		c-0.9,0-1.8,0-2.7,0s-1.8,0-2.7,0c-3.7,0-5.5-0.9-5.5-3.7c0-2.7,1.8-3.7,4.6-3.7c0.9,0,1.8,0,2.7,0c4.6,0.9,8.2,0.9,11,0.9
		c3.7,0,7.3,0,11-0.9c0.9,0,1.8,0,2.7,0c2.7,0,4.6,0.9,4.6,3.7c0,0.9,0,1.8-0.9,2.7c0.9,0,0,0.9-1.8,0.9c-0.9,0-1.8,0-1.8,0
		s0,0-0.9,0s-0.9,0-0.9,0c-3.7,0-4.6,3.7-4.6,11v9.1c0,1.8,0,3.7,0,5.5c0,1.8,0,2.7,0,3.7c0,2.7-0.9,4.6-3.7,4.6
		c-2.7,0-3.7-0.9-3.7-3.7v-2.7c0-0.9,0-1.8,0-3.7c-1.8,1.8-2.7,3.7-3.7,4.6c-4.6,3.7-10,5.5-17.3,5.5c-9.1,0-17.3-3.7-22.8-11
		s-8.2-16.4-8.2-27.4c0-11.9,2.7-21.9,9.1-29.2C181.4,92.4,188.7,88.8,198.8,88.8z"/>
</g>
</svg>
