<?xml version="1.0" encoding="utf-8"?>
<!-- Generator: Adobe Illustrator 21.0.0, SVG Export Plug-In . SVG Version: 6.00 Build 0)  -->
<svg version="1.1" id="图层_1" xmlns="http://www.w3.org/2000/svg" xmlns:xlink="http://www.w3.org/1999/xlink" x="0px" y="0px"
	 viewBox="0 0 256 256" style="enable-background:new 0 0 256 256;" xml:space="preserve">
<style type="text/css">
	.st0{fill:#E5E5E5;}
</style>
<circle class="st0" cx="128.5" cy="128" r="128"/>
<g>
	<path d="M16.7,157.7V76.4H77v13.8H33.1v18h40.8v13.7H33.1V144h45.4v13.7H16.7z"/>
	<path d="M92.5,157.7V76.4h26.4c10,0,16.5,0.4,19.5,1.2c4.7,1.2,8.6,3.9,11.7,8c3.1,4.1,4.7,9.4,4.7,15.8c0,5-0.9,9.2-2.7,12.6
		c-1.8,3.4-4.1,6.1-6.9,8c-2.8,1.9-5.6,3.2-8.5,3.9c-3.9,0.8-9.6,1.2-17,1.2h-10.7v30.7H92.5z M108.9,90.1v23.1h9
		c6.5,0,10.8-0.4,13-1.3c2.2-0.9,3.9-2.2,5.1-4c1.2-1.8,1.9-3.9,1.9-6.3c0-3-0.9-5.4-2.6-7.3c-1.7-1.9-3.9-3.1-6.6-3.6
		c-2-0.4-5.9-0.6-11.8-0.6H108.9z"/>
	<path d="M206.1,127.8v-13.7h35.4v32.4c-3.4,3.3-8.4,6.3-15,8.8c-6.5,2.5-13.1,3.8-19.8,3.8c-8.5,0-15.9-1.8-22.2-5.4
		c-6.3-3.6-11.1-8.7-14.3-15.3c-3.2-6.6-4.8-13.9-4.8-21.7c0-8.5,1.8-16,5.3-22.6c3.6-6.6,8.7-11.6,15.6-15.1
		c5.2-2.7,11.7-4.1,19.5-4.1c10.1,0,18,2.1,23.7,6.4c5.7,4.2,9.3,10.1,11,17.6l-16.3,3.1c-1.1-4-3.3-7.1-6.5-9.5
		c-3.2-2.3-7.1-3.5-11.8-3.5c-7.2,0-12.9,2.3-17.1,6.8c-4.2,4.5-6.4,11.3-6.4,20.2c0,9.7,2.1,16.9,6.4,21.7
		c4.3,4.8,9.9,7.2,16.9,7.2c3.4,0,6.9-0.7,10.3-2c3.5-1.3,6.4-3,8.9-4.9v-10.3H206.1z"/>
</g>
</svg>
