<?xml version="1.0" encoding="utf-8"?>
<!-- Generator: Adobe Illustrator 21.0.0, SVG Export Plug-In . SVG Version: 6.00 Build 0)  -->
<svg version="1.1" id="图层_1" xmlns="http://www.w3.org/2000/svg" xmlns:xlink="http://www.w3.org/1999/xlink" x="0px" y="0px"
	 viewBox="0 0 256 256" style="enable-background:new 0 0 256 256;" xml:space="preserve">
<style type="text/css">
	.st0{fill:#E5E5E5;}
</style>
<g>
	<circle class="st0" cx="128.5" cy="128" r="128"/>
</g>
<g>
	<path d="M42.7,173.4V70.1h21v85.8H116v17.6H42.7z"/>
	<path d="M131.1,69.2h41.6c8.2,0,14.4,0.3,18.4,1c4.1,0.7,7.7,2.1,10.9,4.3c3.2,2.2,5.9,5.1,8,8.7c2.1,3.6,3.2,7.7,3.2,12.2
		c0,4.9-1.3,9.4-3.9,13.4c-2.6,4.1-6.2,7.1-10.7,9.2c6.3,1.8,11.2,5,14.6,9.5c3.4,4.5,5.1,9.7,5.1,15.7c0,4.7-1.1,9.3-3.3,13.8
		c-2.2,4.5-5.2,8.1-9,10.7c-3.8,2.7-8.5,4.3-14.1,4.9c-3.5,0.4-12,0.6-25.4,0.7h-35.5V69.2z M152.1,86.5v24.1h13.8
		c8.2,0,13.3-0.1,15.3-0.4c3.6-0.4,6.4-1.7,8.5-3.7c2.1-2.1,3.1-4.8,3.1-8.1c0-3.2-0.9-5.8-2.7-7.9c-1.8-2-4.4-3.2-7.9-3.7
		c-2.1-0.2-8.1-0.4-18-0.4H152.1z M152.1,128v27.9h19.5c7.6,0,12.4-0.2,14.4-0.6c3.1-0.6,5.7-2,7.6-4.2c2-2.2,2.9-5.2,2.9-8.8
		c0-3.1-0.8-5.8-2.3-8c-1.5-2.2-3.7-3.8-6.6-4.8s-9.1-1.5-18.7-1.5H152.1z"/>
</g>
</svg>
